# xmcd CD database file
#
# Track frame offsets:
#	150
#	16653
#	31229
#	47466
#	62556
#	79124
#	90771
#	108307
#	125394
#	144640
#
# Disc length: 2122 seconds
#
# Revision: 0
# Processed by: cddbd v1.5.1PL0 Copyright (c) Steve Scherf et al.
# Submitted via: CDex 1.51
#
DISCID=6b08480a
DTITLE=Brad Johner - Summertown Road
DYEAR=2005
DGENRE=Country
TTITLE0=I'd Rather Be Lucky
TTITLE1=I've Got It Good
TTITLE2=Summertown Road
TTITLE3=Your Love Is My Luck
TTITLE4=She Moved
TTITLE5=Livin' Big
TTITLE6=What a Girl Wants
TTITLE7=It's a Beautiful World
TTITLE8=Every Other Saturday
TTITLE9=Can't Beat an Original
EXTD=YEAR: 2005
EXTT0=
EXTT1=
EXTT2=
EXTT3=
EXTT4=
EXTT5=
EXTT6=
EXTT7=
EXTT8=
EXTT9=
PLAYORDER=
